<?xml version="1.0" encoding="utf-8"?>
<!-- Generator: Adobe Illustrator 22.0.1, SVG Export Plug-In . SVG Version: 6.00 Build 0)  -->
<svg version="1.1" id="Layer_1" xmlns="http://www.w3.org/2000/svg" xmlns:xlink="http://www.w3.org/1999/xlink" x="0px" y="0px"
	 viewBox="0 0 22 18" style="enable-background:new 0 0 22 18;" xml:space="preserve">
<style type="text/css">
	.st0{fill:#143C73;}
</style>
<path class="st0" d="M1.6,5.6v6.9h5.9l4.9,3.9V1.6L7.5,5.6H1.6z"/>
<path class="st0" d="M15.7,9.1c0-1-0.6-1.8-1.4-2.2l-1.1,2l1.3,2.3C15.2,10.8,15.7,10,15.7,9.1z"/>
<path class="st0" d="M20.4,9.1c0-2.7-1.5-5.1-3.8-6.3l-0.4,0.7c2,1.1,3.4,3.2,3.4,5.6c0,2.4-1.3,4.4-3.2,5.5l0.4,0.7
	C18.9,14,20.4,11.7,20.4,9.1z"/>
<path class="st0" d="M18.5,9.1c0-1.9-1.1-3.7-2.8-4.6l-0.4,0.7c1.4,0.7,2.4,2.2,2.4,3.9c0,1.6-0.9,3-2.2,3.8l0.4,0.7
	C17.4,12.7,18.5,11,18.5,9.1z"/>
<path class="st0" d="M16.5,9.1c0-1.3-0.7-2.4-1.8-2.9l-0.4,0.7c0.8,0.4,1.4,1.2,1.4,2.2c0,0.9-0.5,1.7-1.2,2.1l0.4,0.7
	C15.9,11.3,16.5,10.3,16.5,9.1z"/>
</svg>
